<?xml version="1.0" encoding="utf-8"?>
<!-- Generator: Adobe Illustrator 26.0.1, SVG Export Plug-In . SVG Version: 6.00 Build 0)  -->
<svg version="1.1" id="Layer_3" xmlns="http://www.w3.org/2000/svg" xmlns:xlink="http://www.w3.org/1999/xlink" x="0px" y="0px"
	 viewBox="0 0 2000 1000" style="enable-background:new 0 0 2000 1000;" xml:space="preserve">
<style type="text/css">
	.st0{fill:url(#SVGID_1_);}
	.st1{clip-path:url(#SVGID_00000166641897881174190560000004476403440025147818_);}
	.st2{fill:#030202;stroke:#FFFFFF;stroke-width:2;stroke-miterlimit:10;}
	.st3{fill:#030202;stroke:#FFFFFF;stroke-width:1.9821;stroke-miterlimit:10;}
	.st4{fill:#030202;stroke:#FFFFFF;stroke-width:1.9643;stroke-miterlimit:10;}
	.st5{fill:#030202;stroke:#FFFFFF;stroke-width:1.9464;stroke-miterlimit:10;}
	.st6{fill:#030202;stroke:#FFFFFF;stroke-width:1.9286;stroke-miterlimit:10;}
	.st7{fill:#030202;stroke:#FFFFFF;stroke-width:1.9107;stroke-miterlimit:10;}
	.st8{fill:#030202;stroke:#FFFFFF;stroke-width:1.8929;stroke-miterlimit:10;}
	.st9{fill:#030202;stroke:#FFFFFF;stroke-width:1.875;stroke-miterlimit:10;}
	.st10{fill:#030202;stroke:#FFFFFF;stroke-width:1.8571;stroke-miterlimit:10;}
	.st11{fill:#030202;stroke:#FFFFFF;stroke-width:1.8393;stroke-miterlimit:10;}
	.st12{fill:#030202;stroke:#FFFFFF;stroke-width:1.8214;stroke-miterlimit:10;}
	.st13{fill:#030202;stroke:#FFFFFF;stroke-width:1.8036;stroke-miterlimit:10;}
	.st14{fill:#030202;stroke:#FFFFFF;stroke-width:1.7857;stroke-miterlimit:10;}
	.st15{fill:#030202;stroke:#FFFFFF;stroke-width:1.7679;stroke-miterlimit:10;}
	.st16{fill:#030202;stroke:#FFFFFF;stroke-width:1.75;stroke-miterlimit:10;}
	.st17{fill:#030202;stroke:#FFFFFF;stroke-width:1.7321;stroke-miterlimit:10;}
	.st18{fill:#030202;stroke:#FFFFFF;stroke-width:1.7143;stroke-miterlimit:10;}
	.st19{fill:#030202;stroke:#FFFFFF;stroke-width:1.6964;stroke-miterlimit:10;}
	.st20{fill:#030202;stroke:#FFFFFF;stroke-width:1.6786;stroke-miterlimit:10;}
	.st21{fill:#030202;stroke:#FFFFFF;stroke-width:1.6607;stroke-miterlimit:10;}
	.st22{fill:#030202;stroke:#FFFFFF;stroke-width:1.6429;stroke-miterlimit:10;}
	.st23{fill:#030202;stroke:#FFFFFF;stroke-width:1.625;stroke-miterlimit:10;}
	.st24{fill:#030202;stroke:#FFFFFF;stroke-width:1.6071;stroke-miterlimit:10;}
	.st25{fill:#030202;stroke:#FFFFFF;stroke-width:1.5893;stroke-miterlimit:10;}
	.st26{fill:#030202;stroke:#FFFFFF;stroke-width:1.5714;stroke-miterlimit:10;}
	.st27{fill:#030202;stroke:#FFFFFF;stroke-width:1.5536;stroke-miterlimit:10;}
	.st28{fill:#030202;stroke:#FFFFFF;stroke-width:1.5357;stroke-miterlimit:10;}
	.st29{fill:#030202;stroke:#FFFFFF;stroke-width:1.5179;stroke-miterlimit:10;}
	.st30{fill:#030202;stroke:#FFFFFF;stroke-width:1.5;stroke-miterlimit:10;}
	.st31{fill:#030202;stroke:#FFFFFF;stroke-width:1.4821;stroke-miterlimit:10;}
	.st32{fill:#030202;stroke:#FFFFFF;stroke-width:1.4643;stroke-miterlimit:10;}
	.st33{fill:#030202;stroke:#FFFFFF;stroke-width:1.4464;stroke-miterlimit:10;}
	.st34{fill:#030202;stroke:#FFFFFF;stroke-width:1.4286;stroke-miterlimit:10;}
	.st35{fill:#030202;stroke:#FFFFFF;stroke-width:1.4107;stroke-miterlimit:10;}
	.st36{fill:#030202;stroke:#FFFFFF;stroke-width:1.3929;stroke-miterlimit:10;}
	.st37{fill:#030202;stroke:#FFFFFF;stroke-width:1.375;stroke-miterlimit:10;}
	.st38{fill:#030202;stroke:#FFFFFF;stroke-width:1.3571;stroke-miterlimit:10;}
	.st39{fill:#030202;stroke:#FFFFFF;stroke-width:1.3393;stroke-miterlimit:10;}
	.st40{fill:#030202;stroke:#FFFFFF;stroke-width:1.3214;stroke-miterlimit:10;}
	.st41{fill:#030202;stroke:#FFFFFF;stroke-width:1.3036;stroke-miterlimit:10;}
	.st42{fill:#030202;stroke:#FFFFFF;stroke-width:1.2857;stroke-miterlimit:10;}
	.st43{fill:#030202;stroke:#FFFFFF;stroke-width:1.2679;stroke-miterlimit:10;}
	.st44{fill:#030202;stroke:#FFFFFF;stroke-width:1.25;stroke-miterlimit:10;}
	.st45{fill:#030202;stroke:#FFFFFF;stroke-width:1.2321;stroke-miterlimit:10;}
	.st46{fill:#030202;stroke:#FFFFFF;stroke-width:1.2143;stroke-miterlimit:10;}
	.st47{fill:#030202;stroke:#FFFFFF;stroke-width:1.1964;stroke-miterlimit:10;}
	.st48{fill:#030202;stroke:#FFFFFF;stroke-width:1.1786;stroke-miterlimit:10;}
	.st49{fill:#030202;stroke:#FFFFFF;stroke-width:1.1607;stroke-miterlimit:10;}
	.st50{fill:#030202;stroke:#FFFFFF;stroke-width:1.1429;stroke-miterlimit:10;}
	.st51{fill:#030202;stroke:#FFFFFF;stroke-width:1.125;stroke-miterlimit:10;}
	.st52{fill:#030202;stroke:#FFFFFF;stroke-width:1.1071;stroke-miterlimit:10;}
	.st53{fill:#030202;stroke:#FFFFFF;stroke-width:1.0893;stroke-miterlimit:10;}
	.st54{fill:#030202;stroke:#FFFFFF;stroke-width:1.0714;stroke-miterlimit:10;}
	.st55{fill:#030202;stroke:#FFFFFF;stroke-width:1.0536;stroke-miterlimit:10;}
	.st56{fill:#030202;stroke:#FFFFFF;stroke-width:1.0357;stroke-miterlimit:10;}
	.st57{fill:#030202;stroke:#FFFFFF;stroke-width:1.0179;stroke-miterlimit:10;}
	.st58{fill:#030202;stroke:#FFFFFF;stroke-miterlimit:10;}
	.st59{fill:#080705;}
</style>
<linearGradient id="SVGID_1_" gradientUnits="userSpaceOnUse" x1="27.9468" y1="4.1157" x2="1991.8616" y2="1005.9894">
	<stop  offset="0.0543" style="stop-color:#5B0209"/>
	<stop  offset="0.0692" style="stop-color:#580209"/>
	<stop  offset="0.2576" style="stop-color:#300809"/>
	<stop  offset="0.4076" style="stop-color:#180C09"/>
	<stop  offset="0.4997" style="stop-color:#0F0D09"/>
	<stop  offset="0.6053" style="stop-color:#130D09"/>
	<stop  offset="0.7199" style="stop-color:#200E0B"/>
	<stop  offset="0.8383" style="stop-color:#360F0D"/>
	<stop  offset="0.9444" style="stop-color:#501110"/>
</linearGradient>
<rect x="0" y="0" class="st0" width="2000" height="1000"/>
<g>
	<defs>
		<rect id="SVGID_00000152223709543569919310000016667986683232822969_" width="2000" height="1000"/>
	</defs>
	<use xlink:href="#SVGID_00000152223709543569919310000016667986683232822969_"  style="overflow:visible;fill:#030202;"/>
	<clipPath id="SVGID_00000023979640217244125180000004539466706359419044_">
		<use xlink:href="#SVGID_00000152223709543569919310000016667986683232822969_"  style="overflow:visible;"/>
	</clipPath>
	<g style="clip-path:url(#SVGID_00000023979640217244125180000004539466706359419044_);">
		<g>
			<polyline class="st2" points="4.25,-50.79 807.8,252.76 1142.95,1000 			"/>
			<polyline class="st3" points="-9.86,-37.33 793.69,266.22 1128.4,1012.48 			"/>
			<polyline class="st4" points="-23.98,-23.88 779.58,279.68 1113.86,1024.97 			"/>
			<polyline class="st5" points="-38.09,-10.42 765.47,293.13 1099.31,1037.45 			"/>
			<polyline class="st6" points="-52.2,3.04 751.36,306.59 1084.76,1049.94 			"/>
			<polyline class="st7" points="-66.31,16.5 737.24,320.05 1070.21,1062.42 			"/>
			<polyline class="st8" points="-80.42,29.95 723.13,333.51 1055.67,1074.91 			"/>
			<polyline class="st9" points="-94.53,43.41 709.02,346.96 1041.12,1087.39 			"/>
			<polyline class="st10" points="-108.64,56.87 694.91,360.42 1026.57,1099.88 			"/>
			<polyline class="st11" points="-122.75,70.32 680.8,373.88 1012.03,1112.36 			"/>
			<polyline class="st12" points="-136.86,83.78 666.69,387.33 997.48,1124.85 			"/>
			<polyline class="st13" points="-150.98,97.24 652.58,400.79 982.93,1137.33 			"/>
			<polyline class="st14" points="-165.09,110.7 638.47,414.25 968.38,1149.82 			"/>
			<polyline class="st15" points="-179.2,124.15 624.36,427.71 953.84,1162.3 			"/>
			<polyline class="st16" points="-193.31,137.61 610.24,441.16 939.29,1174.79 			"/>
			<polyline class="st17" points="-207.42,151.07 596.13,454.62 924.74,1187.27 			"/>
			<polyline class="st18" points="-221.53,164.52 582.02,468.08 910.2,1199.76 			"/>
			<polyline class="st19" points="-235.64,177.98 567.91,481.53 895.65,1212.24 			"/>
			<polyline class="st20" points="-249.75,191.44 553.8,494.99 881.1,1224.73 			"/>
			<polyline class="st21" points="-263.87,204.9 539.69,508.45 866.55,1237.21 			"/>
			<polyline class="st22" points="-277.98,218.35 525.58,521.91 852.01,1249.7 			"/>
			<polyline class="st23" points="-292.09,231.81 511.47,535.36 837.46,1262.18 			"/>
			<polyline class="st24" points="-306.2,245.27 497.35,548.82 822.91,1274.67 			"/>
			<polyline class="st25" points="-320.31,258.72 483.24,562.28 808.36,1287.15 			"/>
			<polyline class="st26" points="-334.42,272.18 469.13,575.73 793.82,1299.64 			"/>
			<polyline class="st27" points="-348.53,285.64 455.02,589.19 779.27,1312.12 			"/>
			<polyline class="st28" points="-362.64,299.09 440.91,602.65 764.72,1324.61 			"/>
			<polyline class="st29" points="-376.75,312.55 426.8,616.11 750.18,1337.09 			"/>
			<polyline class="st30" points="-390.87,326.01 412.69,629.56 735.63,1349.58 			"/>
			<polyline class="st31" points="-404.98,339.47 398.58,643.02 721.08,1362.06 			"/>
			<polyline class="st32" points="-419.09,352.92 384.47,656.48 706.53,1374.55 			"/>
			<polyline class="st33" points="-433.2,366.38 370.35,669.93 691.99,1387.03 			"/>
			<polyline class="st34" points="-447.31,379.84 356.24,683.39 677.44,1399.52 			"/>
			<polyline class="st35" points="-461.42,393.29 342.13,696.85 662.89,1412 			"/>
			<polyline class="st36" points="-475.53,406.75 328.02,710.31 648.35,1424.49 			"/>
			<polyline class="st37" points="-489.64,420.21 313.91,723.76 633.8,1436.97 			"/>
			<polyline class="st38" points="-503.75,433.67 299.8,737.22 619.25,1449.46 			"/>
			<polyline class="st39" points="-517.87,447.12 285.69,750.68 604.7,1461.94 			"/>
			<polyline class="st40" points="-531.98,460.58 271.58,764.13 590.16,1474.43 			"/>
			<polyline class="st41" points="-546.09,474.04 257.46,777.59 575.61,1486.91 			"/>
			<polyline class="st42" points="-560.2,487.49 243.35,791.05 561.06,1499.4 			"/>
			<polyline class="st43" points="-574.31,500.95 229.24,804.5 546.51,1511.88 			"/>
			<polyline class="st44" points="-588.42,514.41 215.13,817.96 531.97,1524.36 			"/>
			<polyline class="st45" points="-602.53,527.87 201.02,831.42 517.42,1536.85 			"/>
			<polyline class="st46" points="-616.64,541.32 186.91,844.88 502.87,1549.33 			"/>
			<polyline class="st47" points="-630.76,554.78 172.8,858.33 488.33,1561.82 			"/>
			<polyline class="st48" points="-644.87,568.24 158.69,871.79 473.78,1574.3 			"/>
			<polyline class="st49" points="-658.98,581.69 144.58,885.25 459.23,1586.79 			"/>
			<polyline class="st50" points="-673.09,595.15 130.46,898.7 444.68,1599.27 			"/>
			<polyline class="st51" points="-687.2,608.61 116.35,912.16 430.14,1611.76 			"/>
			<polyline class="st52" points="-701.31,622.07 102.24,925.62 415.59,1624.24 			"/>
			<polyline class="st53" points="-715.42,635.52 88.13,939.08 401.04,1636.73 			"/>
			<polyline class="st54" points="-729.53,648.98 74.02,952.53 386.5,1649.21 			"/>
			<polyline class="st55" points="-743.64,662.44 59.91,965.99 371.95,1661.7 			"/>
			<polyline class="st56" points="-757.76,675.89 45.8,979.45 357.4,1674.18 			"/>
			<polyline class="st57" points="-771.87,689.35 31.69,992.9 342.85,1686.67 			"/>
			<polyline class="st58" points="-785.98,702.81 17.58,1006.36 328.31,1699.15 			"/>
		</g>
		<g>
			<polyline class="st2" points="1996.27,1009.95 1123.3,728.58 736.02,-35.41 			"/>
			<polyline class="st3" points="2008.9,993.81 1136.48,712.62 749.41,-50.94 			"/>
			<polyline class="st4" points="2021.52,977.67 1149.66,696.66 762.81,-66.47 			"/>
			<polyline class="st5" points="2034.14,961.53 1162.83,680.7 776.2,-82 			"/>
			<polyline class="st6" points="2046.77,945.4 1176.01,664.73 789.6,-97.53 			"/>
			<polyline class="st7" points="2059.39,929.26 1189.18,648.77 802.99,-113.06 			"/>
			<polyline class="st8" points="2072.02,913.12 1202.36,632.81 816.39,-128.59 			"/>
			<polyline class="st9" points="2084.64,896.98 1215.53,616.85 829.78,-144.12 			"/>
			<polyline class="st10" points="2097.27,880.84 1228.71,600.89 843.18,-159.65 			"/>
			<polyline class="st11" points="2109.89,864.7 1241.89,584.93 856.57,-175.17 			"/>
			<polyline class="st12" points="2122.52,848.56 1255.06,568.97 869.97,-190.7 			"/>
			<polyline class="st13" points="2135.14,832.42 1268.24,553.01 883.36,-206.23 			"/>
			<polyline class="st14" points="2147.76,816.28 1281.41,537.04 896.76,-221.76 			"/>
			<polyline class="st15" points="2160.39,800.14 1294.59,521.08 910.15,-237.29 			"/>
			<polyline class="st16" points="2173.01,784.01 1307.76,505.12 923.55,-252.82 			"/>
			<polyline class="st17" points="2185.64,767.87 1320.94,489.16 936.94,-268.35 			"/>
			<polyline class="st18" points="2198.26,751.73 1334.12,473.2 950.34,-283.88 			"/>
			<polyline class="st19" points="2210.89,735.59 1347.29,457.24 963.73,-299.4 			"/>
			<polyline class="st20" points="2223.51,719.45 1360.47,441.28 977.12,-314.93 			"/>
			<polyline class="st21" points="2236.14,703.31 1373.64,425.32 990.52,-330.46 			"/>
			<polyline class="st22" points="2248.76,687.17 1386.82,409.35 1003.91,-345.99 			"/>
			<polyline class="st23" points="2261.38,671.03 1399.99,393.39 1017.31,-361.52 			"/>
			<polyline class="st24" points="2274.01,654.89 1413.17,377.43 1030.7,-377.05 			"/>
			<polyline class="st25" points="2286.63,638.76 1426.35,361.47 1044.1,-392.58 			"/>
			<polyline class="st26" points="2299.26,622.62 1439.52,345.51 1057.49,-408.11 			"/>
			<polyline class="st27" points="2311.88,606.48 1452.7,329.55 1070.89,-423.63 			"/>
			<polyline class="st28" points="2324.51,590.34 1465.87,313.59 1084.28,-439.16 			"/>
			<polyline class="st29" points="2337.13,574.2 1479.05,297.63 1097.68,-454.69 			"/>
			<polyline class="st30" points="2349.76,558.06 1492.22,281.66 1111.07,-470.22 			"/>
			<polyline class="st31" points="2362.38,541.92 1505.4,265.7 1124.47,-485.75 			"/>
			<polyline class="st32" points="2375,525.78 1518.58,249.74 1137.86,-501.28 			"/>
			<polyline class="st33" points="2387.63,509.64 1531.75,233.78 1151.26,-516.81 			"/>
			<polyline class="st34" points="2400.25,493.51 1544.93,217.82 1164.65,-532.34 			"/>
			<polyline class="st35" points="2412.88,477.37 1558.1,201.86 1178.05,-547.86 			"/>
			<polyline class="st36" points="2425.5,461.23 1571.28,185.9 1191.44,-563.39 			"/>
			<polyline class="st37" points="2438.13,445.09 1584.45,169.94 1204.84,-578.92 			"/>
			<polyline class="st38" points="2450.75,428.95 1597.63,153.97 1218.23,-594.45 			"/>
			<polyline class="st39" points="2463.38,412.81 1610.81,138.01 1231.63,-609.98 			"/>
			<polyline class="st40" points="2476,396.67 1623.98,122.05 1245.02,-625.51 			"/>
			<polyline class="st41" points="2488.62,380.53 1637.16,106.09 1258.42,-641.04 			"/>
			<polyline class="st42" points="2501.25,364.39 1650.33,90.13 1271.81,-656.57 			"/>
			<polyline class="st43" points="2513.87,348.26 1663.51,74.17 1285.21,-672.1 			"/>
			<polyline class="st44" points="2526.5,332.12 1676.69,58.21 1298.6,-687.62 			"/>
			<polyline class="st45" points="2539.12,315.98 1689.86,42.25 1312,-703.15 			"/>
			<polyline class="st46" points="2551.75,299.84 1703.04,26.28 1325.39,-718.68 			"/>
			<polyline class="st47" points="2564.37,283.7 1716.21,10.32 1338.79,-734.21 			"/>
			<polyline class="st48" points="2577,267.56 1729.39,-5.64 1352.18,-749.74 			"/>
			<polyline class="st49" points="2589.62,251.42 1742.56,-21.6 1365.58,-765.27 			"/>
			<polyline class="st50" points="2602.24,235.28 1755.74,-37.56 1378.97,-780.8 			"/>
			<polyline class="st51" points="2614.87,219.14 1768.92,-53.52 1392.37,-796.33 			"/>
			<polyline class="st52" points="2627.49,203 1782.09,-69.48 1405.76,-811.85 			"/>
			<polyline class="st53" points="2640.12,186.87 1795.27,-85.44 1419.16,-827.38 			"/>
			<polyline class="st54" points="2652.74,170.73 1808.44,-101.41 1432.55,-842.91 			"/>
			<polyline class="st55" points="2665.37,154.59 1821.62,-117.37 1445.95,-858.44 			"/>
			<polyline class="st56" points="2677.99,138.45 1834.79,-133.33 1459.34,-873.97 			"/>
			<polyline class="st57" points="2690.62,122.31 1847.97,-149.29 1472.74,-889.5 			"/>
			<polyline class="st58" points="2703.24,106.17 1861.15,-165.25 1486.13,-905.03 			"/>
		</g>
	</g>
</g>
<rect class="st59" width="2000" height="1000"/>
</svg>
